<?xml version="1.0" standalone="no"?>
<!DOCTYPE svg PUBLIC "-//W3C//DTD SVG 20010904//EN"
 "http://www.w3.org/TR/2001/REC-SVG-20010904/DTD/svg10.dtd">
<svg xmlns="http://www.w3.org/2000/svg" version="1.0" width="50pt" height="50pt" viewBox="0 0 260 260" preserveAspectRatio="xMidYMid meet">
<metadata>
Created by potrace 1.10, written by Peter Selinger 2001-2011
</metadata>
<g transform="translate(-20,280) scale(0.1,-0.1)" fill="#000000" stroke="none">
<path d="M402 2223 c-156 -248 -179 -289 -168 -303 674 -765 1259 -1426 1265 -1428 5 -1 73 71 152 160 79 90 365 414 636 721 271 307 493 561 493 565 -1 4 -81 133 -179 287 l-178 280 -920 3 -920 2 -181 -287z m936 189 c-5 -13 -347 -322 -355 -322 -7 0 -166 244 -201 307 l-13 23 287 0 c157 0 284 -4 282 -8z m880 -30 c-88 -145 -184 -292 -191 -292 -9 0 -350 309 -355 321 -2 5 125 9 283 9 l286 0 -23 -38z m-1445 -175 l128 -202 -131 -3 c-71 -1 -188 -1 -260 0 l-130 3 128 202 c70 112 129 203 132 203 3 0 63 -91 133 -203z m962 -2 l226 -205 -458 0 -458 0 25 24 c65 64 426 386 432 386 4 0 109 -92 233 -205z m760 4 c70 -110 125 -202 123 -205 -3 -2 -120 -3 -260 -2 l-256 3 90 140 c49 77 106 168 128 203 22 34 41 62 44 62 2 0 61 -90 131 -201z m-1356 -836 c118 -291 221 -544 229 -563 l14 -35 -30 30 c-16 17 -233 260 -482 540 -249 281 -462 520 -473 533 l-20 22 274 0 274 0 214 -527z m817 510 c-50 -138 -452 -1110 -457 -1105 -5 5 -411 998 -450 1100 l-9 22 461 0 c435 0 461 -1 455 -17z m664 12 c0 -3 -116 -135 -257 -294 -142 -158 -364 -408 -493 -554 -217 -245 -266 -296 -241 -249 5 9 102 247 216 527 114 281 213 525 221 543 l13 32 270 0 c149 0 271 -2 271 -5z"/>
</g>
</svg>
